<svg version="1.1" viewBox="0 0 512 512" xmlns="http://www.w3.org/2000/svg">
<path d="m227.17 33.204c-49.745 6.7656-94.922 29.254-130.29 64.935-30.289 30.272-51.441 69.501-60.917 112.46-3.724 17.419-5.2468 56.821-2.7061 74.579 10.659 74.579 54.313 136.81 119.8 170.29 35.196 17.923 62.44 24.523 102.03 24.523 28.427 0.17369 45.342-2.3655 69.88-10.148 78.172-24.689 138.41-93.859 152.63-175.7 3.211-18.94 3.211-56.821 0-75.762-7.9529-45.664-29.61-87.258-62.605-120.41-31.977-32.133-68.696-52.082-113.37-61.726-17.933-3.8873-57.019-5.5829-74.448-3.0437zm175.29 99.607c1.6882 1.0173 3.2192 2.5392 3.2192 3.5482 0 1.0173-8.797 11.166-19.63 22.323-49.919 52.421-83.079 97.746-121.83 167.08-9.1363 16.236-18.786 33.15-21.492 37.542-9.9804 16.062-25.555 21.48-37.058 12.679-3.0454-2.3655-11.338-13.192-18.273-24.011-33.161-51.751-42.644-65.448-54.148-77.623-12.356-13.192-36.545-33.654-54.652-45.829-9.9804-6.7656-12.687-13.018-6.935-15.219 5.7516-2.2001 29.445-0.84364 41.792 2.2001 34.518 8.9657 59.055 26.211 91.545 64.77 4.5682 5.4092 8.6315 9.8093 9.3101 9.8093s5.9254-6.7656 11.503-15.053c37.729-54.282 99.49-111.1 143.82-132.24 8.4577-4.061 25.042-10.653 28.932-11.505 0.3393-0.16542 2.0275 0.68649 3.8896 1.5301z"/>
</svg>
